<svg xmlns="http://www.w3.org/2000/svg" viewBox="0 0 512 512">
  <defs>
    <linearGradient id="bg" x1="0%" y1="0%" x2="100%" y2="100%">
      <stop offset="0%" style="stop-color:#1a0a2e"/>
      <stop offset="50%" style="stop-color:#2d1450"/>
      <stop offset="100%" style="stop-color:#2e0a0a"/>
    </linearGradient>
    <radialGradient id="glow" cx="50%" cy="45%" r="50%">
      <stop offset="0%" style="stop-color:#9b59b6;stop-opacity:0.3"/>
      <stop offset="100%" style="stop-color:transparent"/>
    </radialGradient>
  </defs>
  <rect width="512" height="512" rx="100" fill="url(#bg)"/>
  <rect width="512" height="512" rx="100" fill="url(#glow)"/>
  <circle cx="256" cy="230" r="120" fill="none" stroke="#9b59b6" stroke-width="2" opacity="0.4"/>
  <circle cx="256" cy="230" r="100" fill="none" stroke="#c39bd3" stroke-width="1" opacity="0.2" stroke-dasharray="5 5"/>
  <g opacity="0.25" fill="#fff" font-size="18" text-anchor="middle" font-family="serif">
    <text x="256" y="125">♈</text><text x="316" y="145">♉</text><text x="355" y="195">♊</text>
    <text x="360" y="250">♋</text><text x="340" y="305">♌</text><text x="300" y="340">♍</text>
    <text x="256" y="355">♎</text><text x="212" y="340">♏</text><text x="172" y="305">♐</text>
    <text x="152" y="250">♑</text><text x="157" y="195">♒</text><text x="196" y="145">♓</text>
  </g>
  <line x1="256" y1="230" x2="256" y2="150" stroke="#fff" stroke-width="4" stroke-linecap="round" opacity="0.8"/>
  <line x1="256" y1="230" x2="256" y2="140" stroke="#fff" stroke-width="2" stroke-linecap="round" opacity="0.6"/>
  <circle cx="256" cy="230" r="6" fill="#9b59b6"/>
  <circle cx="256" cy="230" r="3" fill="#fff"/>
  <text x="256" y="108" text-anchor="middle" fill="#ffd700" font-size="16" opacity="0.5">✦</text>
  <text x="380" y="232" text-anchor="middle" fill="#ffd700" font-size="16" opacity="0.5">✦</text>
  <text x="256" y="356" text-anchor="middle" fill="#ffd700" font-size="16" opacity="0.5">✦</text>
  <text x="132" y="232" text-anchor="middle" fill="#ffd700" font-size="16" opacity="0.5">✦</text>
  <text x="256" y="420" text-anchor="middle" fill="#fff" font-family="monospace" font-size="48" opacity="0.8" letter-spacing="4">0:00</text>
  <circle cx="80" cy="80" r="2" fill="#fff" opacity="0.3"/>
  <circle cx="430" cy="60" r="1.5" fill="#fff" opacity="0.2"/>
  <circle cx="100" cy="400" r="1" fill="#fff" opacity="0.2"/>
  <circle cx="420" cy="420" r="1.8" fill="#fff" opacity="0.25"/>
</svg>
